<svg id="Capa_1" data-name="Capa 1" xmlns="http://www.w3.org/2000/svg" viewBox="0 0 715.83 702.74"><title>klak-07</title><path d="M346.65,776.27c-5.24-.82-10.37-1.47-15.42-2.48a20.92,20.92,0,0,1-6.4-2.57,8.38,8.38,0,0,1-3.51-3.74,6,6,0,0,0-5.6-4.14c-4.69-.31-9.4-.43-14.1-.34-9.42.17-18.85.78-28.26.68-3.73,0-7.5-1.33-11.15-2.4-3.36-1-6.55-2.53-9.88-3.65-7.39-2.5-12.13-7.67-16-14.28-7.41-12.59-6.77-25.48-2.32-38.58,2.48-7.32,5.57-14.43,8.4-21.63.23-.59.56-1.15.82-1.73,2.91-6.4,1.07-11.56-5.32-14.65-5.14-2.48-10.69-3.12-16.3-3.36-8.26-.35-15.38-3.24-21.14-9.3-5.48-5.78-8.63-12.77-11-20.25-2.27-7.32-3-14.88-3.21-22.47q-1.31-43.73-2.41-87.45c-.16-6.54.12-13.09-.12-19.63-.31-8.44-3-15.89-9.45-21.8-6.25-5.74-8.5-13.39-9.19-21.53-.46-5.4-.37-10.85-.64-16.27a4.28,4.28,0,0,1,1.68-3.68c9.28-8.36,18.08-17.18,25.42-27.34a37.24,37.24,0,0,0,7-19.19q2.29-25.89,6.23-51.61c3.32-21.94,7.19-43.8,11.15-65.63,1.64-9,4.11-17.88,6.25-26.8a40,40,0,0,1,10.21-18.33c23.28-24.93,48.55-47.49,76.91-66.5,30-20.12,62.14-35.65,97.32-44.46a238.38,238.38,0,0,1,64.58-7.32c26.67.74,53.35,1.54,80,2.9,30.9,1.58,61.61,5,91.82,12,40.65,9.52,77.46,27.34,112.08,50.4,31.07,20.69,54.29,48.27,72.89,80.13,20.72,35.48,35,73.57,45.69,113.12,4.28,15.79,6,31.78,6.44,48.05.47,20.34-.31,40.58-4.13,60.61-2.71,14.21-7.07,27.79-14.68,40.28-1.66,2.73-1.58,6.59-2.05,10-2,14.47-3.72,29-6,43.42-1.93,12-7.24,22.77-13,33.3-1.53,2.8-3.28,5.48-4.86,8.26a44.18,44.18,0,0,1-10.15,12c-23.39,19.64-47,39-72.24,56.24-4.33,3-9,5.44-13.59,8.05-2.24,1.28-4.42,1.1-6.77-.2a32.62,32.62,0,0,1-14-14,2.48,2.48,0,0,0-2.75-1.57q-21.69.4-43.38.59a23.77,23.77,0,0,1-6.42-.61c-2-.54-4.28-1.31-5.6-2.75-10.63-11.51-21.06-23.19-31.54-34.83a3.71,3.71,0,0,1-.35-.74c5.07-2.05,10.14-3.94,15.07-6.14,6.19-2.75,12.38-5.56,18.37-8.74a58.8,58.8,0,0,0,9.58-6.69c6.56-5.38,14.29-8,22.33-10l2.51-.63c.67,5.47,1,11.07,2.09,16.54,2.23,11.82,10.53,19.23,22.48,20.52,2,.22,4,.32,6,.43,7.6.42,12.78-3.23,16.21-9.74a44.49,44.49,0,0,0,5-21c0-4.82,2.1-7.86,5.25-10.84,8.83-8.34,18.69-14.59,30.93-16.69,5.54-.94,9.87-4.38,13.68-8.38,7.41-7.78,12.12-17.13,15.89-27-5.5-3.67-14.18-2.79-19,1.89-2.47,2.39-4.65,5.07-7.19,7.38-8,7.26-17.66,11.37-27.67,14.82-16,5.5-32.54,8.62-49.13,11.59-12.9,2.31-25.76,4.91-38,9.7A55.68,55.68,0,0,0,661.13,602c-3.22,2.29-3.18,4.56-.77,8.14-4.08,2.19-8.08,4.47-12.18,6.53-12.59,6.32-25.45,12-39.34,14.76a78.79,78.79,0,0,1-13.79,1.45c-7.67.14-13.85,3.13-17.71,9.59-3.16,5.3-5.35,11.18-7.88,16.85-1.69,3.79-2.89,7.83-4.94,11.39a12.93,12.93,0,0,1-5.61,5.23c-9.81,4.22-19.86,7.92-29.73,12-5.3,2.2-10.48,4.71-15.63,7.25a17.37,17.37,0,0,0-6.38,6,42.43,42.43,0,0,1-7.21,7.28c-8.47,7.31-17.11,14.41-25.53,21.77a30.32,30.32,0,0,0-5.24,6.5,10.82,10.82,0,0,0-1.75,5.12,13.18,13.18,0,0,1-3.35,8.51c-2.82,3.15-5.76,6.21-8.83,9.12-7.06,6.71-10.64,14.94-11.53,24.58a143.83,143.83,0,0,1-2.41,16.81c-2.24,10.47-8.63,15.49-19.35,15.62a34.32,34.32,0,0,1-7.85-.65c-8.66-2-14-8.81-13.79-18.54.13-6.91-3.49-11.61-8-15.82-3.94-3.65-8-3.09-11.76,1-2.26,2.47-4.21,5.35-6.84,7.32a28.32,28.32,0,0,1-9.29,4.63c-6.81,1.81-12.77-1.47-15.53-8a30,30,0,0,1-1.57-5.26C347,779.49,346.84,777.74,346.65,776.27ZM463,512.19a134,134,0,0,0-9-45.63,7.21,7.21,0,0,0-2.46-3.07c-25.14-18.34-53.23-28-84.4-28.35-5.57-.06-11.13,0-16.41,2.49a87.48,87.48,0,0,0-18.23,10.94c-11.3,9.2-18.59,20.68-20.26,35.43-1.17,10.33.75,20.23,4,29.92,8.69,26.08,25.32,45.1,50.58,56.36a7,7,0,0,1,2,1.59c8.94,9.3,20,13.92,32.66,12.21,21.86-3,39.29-13.87,51.49-32.33C460.67,540,462.83,526.5,463,512.19Zm52.88-138.62c2.5-.22,7.07-.38,11.56-1.07C543.52,370,557.77,363,571,353.82a78.85,78.85,0,0,0,24.81-27.19c8.06-14.71,7-28.61-3.24-41.78a86.71,86.71,0,0,0-8.13-9.11c-11.63-11.19-25.35-19.3-39.61-26.65a53,53,0,0,0-21.91-6.2c-7.18-.35-14.2-.06-20.67,3.66-13,7.46-25.91,15.14-39.14,22.2a31.67,31.67,0,0,0-13.61,13.95c-5.9,11.37-6.78,23.38-3.81,35.65,3.66,15.12,10.34,28.72,22.06,39.29C480.81,369.39,496.67,373.4,515.84,373.57ZM297.78,676.86v-1.08c5.91,0,11.82.11,17.73,0,7.69-.18,7.76-.34,8.88-8,1.38-9.42.79-18.84-.7-28.16-1.25-7.86-2.57-15.82-5-23.36-3.6-11.13-11.29-19.76-19.77-27.55-17.12-15.76-37.09-27-58.14-36.59-3.94-1.79-6.05-1.31-8.83,2.07-8.67,10.56-12.62,22.84-12.58,36.37a71.57,71.57,0,0,0,9.28,34.57c11.1,20.22,26.81,36.45,44.47,51a3.38,3.38,0,0,0,1.92.77C282.61,676.88,290.2,676.86,297.78,676.86Zm-83.06-140.6c2.41-1.88,4.68-3.5,6.77-5.32,4-3.46,7.74-7.16,11.79-10.53a67.07,67.07,0,0,0,23.19-37.86c1.75-7.79,2.77-15.59.42-23.42-3.26-10.85-10.84-17.95-20.29-23.51-11.18-6.56-22.91-6.92-34.86-3-7.82,2.58-11.51,8.18-11.35,16.38.08,4.22.52,8.44,1,12.65a211.3,211.3,0,0,0,12.06,52.08A113.1,113.1,0,0,0,214.72,536.26ZM528.5,551.47h-.29c0,4.47-.06,8.95,0,13.43a41.14,41.14,0,0,0,.62,6.66,4,4,0,0,0,1.75,2.55c2.27,1.26,4.83,2,7.07,3.31a86.16,86.16,0,0,0,22.21,9.36c17.29,4.39,34.67,3.65,52.09,1,1.81-.28,1.55-1.38,1.18-2.44a7.32,7.32,0,0,0-5.39-4.71c-5-1.23-10.11-2.12-15.21-3-7.23-1.22-14.59-1.86-21.71-3.53-9.16-2.15-15-8-16.84-17.54a55,55,0,0,1,1.18-24.44c1.17-4.47-.31-7.64-3.66-10.28-4-3.21-8.85-4.72-13.82-5.67a20.34,20.34,0,0,1-10-4.9c-7.18-6.43-11.72-14.69-15.88-23.17a239.65,239.65,0,0,1-13.91-36.67c-.24-.79-.91-2-1.47-2.07-2.53-.22-5.22-.34-7.16,1.78-1.75,1.92-.57,4,.23,5.82,4.87,11.37,9.52,22.85,14.81,34,4.73,10,10.12,19.72,15.39,29.47,1.18,2.18,2.67,4.38,5.51,5,.6.14,1.23,1,1.46,1.73a16.68,16.68,0,0,1,1,4.41C528.05,538.22,528.25,544.85,528.5,551.47ZM453.16,726.64c-2.91-3.91-5.35-7.25-7.87-10.53-1.9-2.46-3.54-5.3-5.93-7.17q-20.89-16.28-42.14-32.09c-4.79-3.55-10.12-6.37-15.25-9.45a9.86,9.86,0,0,0-3.16-1c-.44-.09-1.3.21-1.4.52a2.37,2.37,0,0,0,.3,1.7c.26.45.84.72,1.27,1.07,11.73,9.76,23.58,19.39,35.15,29.34,7.39,6.35,14.47,13.08,20.25,21a12,12,0,0,1,2.79,7.71c-.1,2.9,1.77,4.5,4.49,3.62C445.47,730.1,449.11,728.33,453.16,726.64ZM292.41,394.32l-.58-.12c-.38.91-.83,1.81-1.12,2.75-2.75,9.16-5.44,18.34-8.22,27.49a15.06,15.06,0,0,1-1.84,3.81c-4.28,6.51-6.15,13.49-4.78,21.18,3.89-3,7.55-6.11,11.44-8.85s8.43-5.18,13.34-5.55c4.64-.36,9.36.25,14.44.46a33.31,33.31,0,0,0-2.15-2.81c-2.14-2.26-4.49-4.33-6.51-6.7-3.56-4.18-7.17-8.36-10.32-12.85A21.45,21.45,0,0,1,292.22,397C292.36,396.12,292.35,395.22,292.41,394.32Zm94,339c-.14-1.19-.2-2.39-.43-3.56-2-10.18-8.67-16.23-17.82-19.95-1.52-.62-3.83-.82-5.14-.08-1.92,1.09-1,3.44-.61,5.28a15.49,15.49,0,0,0,1,2.93,43.09,43.09,0,0,0,10.71,15.14,23.33,23.33,0,0,0,6.82,4.25C384.55,738.77,386.38,737.2,386.4,733.35Zm-38.48-23.12c.07-7.34-3.11-11.71-8.52-12.64-.73-.12-2,.06-2.27.54-4.81,7.78-7.22,16-3.64,25,1.93,4.85,5.22,5.36,8.64,1.4A24,24,0,0,0,347.92,710.23Z" transform="translate(-164.46 -113.76)"/></svg>